M48
METRIC,LZ,000.000
;FILE_FORMAT=3:3
;TYPE=PLATED
;Layer: PTH_Through
;EasyEDA v6.5.34, 2023-08-17 23:02:58
;5a32774511aa48568c4b3b3a5df32718,8ef1d5b344d144c2b0b16805c6f0e890,10
;Gerber Generator version 0.2
;Holesize 1 = 0.305 mm
T01C0.305
;Holesize 2 = 0.712 mm
T02C0.712
;Holesize 3 = 0.889 mm
T03C0.889
;Holesize 4 = 0.915 mm
T04C0.915
;Holesize 5 = 1.016 mm
T05C1.016
;Holesize 6 = 1.301 mm
T06C1.301
%
G05
G90
T01
X021717Y023622
X021717Y026543
X026924Y012192
X025908Y013843
X024384Y012319
X060452Y046228
X059563Y047371
X058420Y046228
X044069Y037719
X043053Y036322
X044958Y036195
T02
X070000Y044270
X070000Y041730
T03
X002301Y021699
X002301Y026901
X002301Y019200
X002301Y024300
X002301Y029599
X002301Y031999
X002301Y010201
X002301Y005100
X002301Y002601
X093100Y043000
X078400Y049200
X081000Y049200
X075800Y049200
X093100Y045500
X093100Y048000
X002300Y007700
T04
X014000Y047300
X014000Y044760
X014000Y042220
X014000Y039680
X014000Y037140
X014000Y034600
X014000Y032060
X014000Y029520
X014000Y026980
X014000Y024440
X014000Y021900
X014000Y019360
X029240Y019360
X029240Y021900
X029240Y024440
X029240Y026980
X029240Y029520
X029240Y032060
X029240Y034600
X029240Y037140
X029240Y039680
X029240Y042220
X029240Y044760
X029240Y047300
T05
X064224Y037176
X064224Y034636
X064224Y032096
X064224Y029556
X064224Y027016
X064224Y024476
X064224Y021936
X064224Y019396
X064224Y016856
X064224Y014316
T06
X049988Y018489
X050496Y013511
X049988Y038489
X050496Y033511
M30
