G04 Layer: TopSolderMaskLayer*
G04 EasyEDA v6.5.34, 2023-08-17 23:02:58*
G04 5a32774511aa48568c4b3b3a5df32718,8ef1d5b344d144c2b0b16805c6f0e890,10*
G04 Gerber Generator version 0.2*
G04 Scale: 100 percent, Rotated: No, Reflected: No *
G04 Dimensions in millimeters *
G04 leading zeros omitted , absolute positions ,4 integer and 5 decimal *
%FSLAX45Y45*%
%MOMM*%

%AMMACRO1*1,1,$1,$2,$3*1,1,$1,$4,$5*1,1,$1,0-$2,0-$3*1,1,$1,0-$4,0-$5*20,1,$1,$2,$3,$4,$5,0*20,1,$1,$4,$5,0-$2,0-$3,0*20,1,$1,0-$2,0-$3,0-$4,0-$5,0*20,1,$1,0-$4,0-$5,$2,$3,0*4,1,4,$2,$3,$4,$5,0-$2,0-$3,0-$4,0-$5,$2,$3,0*%
%ADD10C,1.3970*%
%ADD11MACRO1,0.2032X0.7874X0.7874X0.7874X-0.7874*%
%ADD12C,2.0828*%
%ADD13C,1.7272*%
%ADD14C,2.7432*%

%LPD*%
D10*
G01*
X7000011Y4426991D03*
G01*
X7000011Y4172991D03*
D11*
G01*
X230123Y2169922D03*
G01*
X230123Y2690114D03*
G01*
X230123Y1919985D03*
G01*
X230123Y2430018D03*
G01*
X230123Y2959861D03*
G01*
X230123Y3199892D03*
G01*
X230123Y1020064D03*
G01*
X230123Y510031D03*
G01*
X230123Y260096D03*
D12*
G01*
X6422390Y3717594D03*
G01*
X6422390Y3463594D03*
G01*
X6422390Y3209594D03*
G01*
X6422390Y2955594D03*
G01*
X6422390Y2701594D03*
G01*
X6422390Y2447594D03*
G01*
X6422390Y2193594D03*
G01*
X6422390Y1939594D03*
G01*
X6422390Y1685594D03*
G01*
X6422390Y1431594D03*
D11*
G01*
X9309989Y4299991D03*
G01*
X7839989Y4920005D03*
G01*
X8100009Y4920005D03*
G01*
X7579994Y4920005D03*
G01*
X9309989Y4550003D03*
G01*
X9309989Y4799990D03*
D13*
G01*
X1399997Y4729987D03*
G01*
X1399997Y4475987D03*
G01*
X1399997Y4221987D03*
G01*
X1399997Y3967987D03*
G01*
X1399997Y3713987D03*
G01*
X1399997Y3459987D03*
G01*
X1399997Y3205987D03*
G01*
X1399997Y2951987D03*
G01*
X1399997Y2697987D03*
G01*
X1399997Y2443987D03*
G01*
X1399997Y2189987D03*
G01*
X1399997Y1935987D03*
G01*
X2923997Y1935987D03*
G01*
X2923997Y2189987D03*
G01*
X2923997Y2443987D03*
G01*
X2923997Y2697987D03*
G01*
X2923997Y2951987D03*
G01*
X2923997Y3205987D03*
G01*
X2923997Y3459987D03*
G01*
X2923997Y3713987D03*
G01*
X2923997Y3967987D03*
G01*
X2923997Y4221987D03*
G01*
X2923997Y4475987D03*
G01*
X2923997Y4729987D03*
D11*
G01*
X229997Y770001D03*
D14*
G01*
X4998770Y1848916D03*
G01*
X5049570Y1351076D03*
G01*
X4998770Y3848912D03*
G01*
X5049570Y3351072D03*
M02*
