G04 Layer: BottomSilkscreenLayer*
G04 EasyEDA v6.5.34, 2023-08-17 23:02:58*
G04 5a32774511aa48568c4b3b3a5df32718,8ef1d5b344d144c2b0b16805c6f0e890,10*
G04 Gerber Generator version 0.2*
G04 Scale: 100 percent, Rotated: No, Reflected: No *
G04 Dimensions in millimeters *
G04 leading zeros omitted , absolute positions ,4 integer and 5 decimal *
%FSLAX45Y45*%
%MOMM*%

%ADD10C,0.2032*%

%LPD*%
D10*
X7595755Y501764D02*
G01*
X7604991Y520237D01*
X7623464Y538711D01*
X7641935Y547946D01*
X7678882Y547946D01*
X7697355Y538711D01*
X7715826Y520237D01*
X7725064Y501764D01*
X7734300Y474055D01*
X7734300Y427875D01*
X7725064Y400164D01*
X7715826Y381693D01*
X7697355Y363220D01*
X7678882Y353984D01*
X7641935Y353984D01*
X7623464Y363220D01*
X7604991Y381693D01*
X7595755Y400164D01*
X7595755Y427875D01*
X7641935Y427875D02*
G01*
X7595755Y427875D01*
X7534795Y547946D02*
G01*
X7534795Y353984D01*
X7405484Y547946D02*
G01*
X7405484Y353984D01*
X7534795Y455584D02*
G01*
X7405484Y455584D01*
X7326053Y547946D02*
G01*
X7224453Y547946D01*
X7279871Y474055D01*
X7252162Y474055D01*
X7233688Y464820D01*
X7224453Y455584D01*
X7215215Y427875D01*
X7215215Y409402D01*
X7224453Y381693D01*
X7242924Y363220D01*
X7270635Y353984D01*
X7298344Y353984D01*
X7326053Y363220D01*
X7335288Y372455D01*
X7344524Y390928D01*
X7024946Y520237D02*
G01*
X7043420Y538711D01*
X7071128Y547946D01*
X7108075Y547946D01*
X7135784Y538711D01*
X7154255Y520237D01*
X7154255Y501764D01*
X7145020Y483293D01*
X7135784Y474055D01*
X7117311Y464820D01*
X7061893Y446346D01*
X7043420Y437111D01*
X7034184Y427875D01*
X7024946Y409402D01*
X7024946Y381693D01*
X7043420Y363220D01*
X7071128Y353984D01*
X7108075Y353984D01*
X7135784Y363220D01*
X7154255Y381693D01*
X6899333Y547946D02*
G01*
X6899333Y353984D01*
X6963986Y547946D02*
G01*
X6834677Y547946D01*
X6773717Y547946D02*
G01*
X6773717Y353984D01*
X6773717Y547946D02*
G01*
X6690591Y547946D01*
X6662882Y538711D01*
X6653644Y529475D01*
X6644408Y511002D01*
X6644408Y492528D01*
X6653644Y474055D01*
X6662882Y464820D01*
X6690591Y455584D01*
X6773717Y455584D01*
X6709064Y455584D02*
G01*
X6644408Y353984D01*
X6583448Y547946D02*
G01*
X6583448Y409402D01*
X6574213Y381693D01*
X6555740Y363220D01*
X6528031Y353984D01*
X6509557Y353984D01*
X6481848Y363220D01*
X6463375Y381693D01*
X6454140Y409402D01*
X6454140Y547946D01*
X6393179Y547946D02*
G01*
X6393179Y353984D01*
X6393179Y547946D02*
G01*
X6319288Y353984D01*
X6245397Y547946D02*
G01*
X6319288Y353984D01*
X6245397Y547946D02*
G01*
X6245397Y353984D01*
X6184437Y289328D02*
G01*
X6018184Y289328D01*
X5957224Y547946D02*
G01*
X5883333Y353984D01*
X5809442Y547946D02*
G01*
X5883333Y353984D01*
X5748482Y511002D02*
G01*
X5730008Y520237D01*
X5702300Y547946D01*
X5702300Y353984D01*
M02*
