G04 Layer: BottomLayer*
G04 EasyEDA v6.5.34, 2023-08-17 23:02:58*
G04 80a5892e81db4367b3f60eb2337eeb35,8ef1d5b344d144c2b0b16805c6f0e890,10*
G04 Gerber Generator version 0.2*
G04 Scale: 100 percent, Rotated: No, Reflected: No *
G04 Dimensions in millimeters *
G04 leading zeros omitted , absolute positions ,4 integer and 5 decimal *
%FSLAX45Y45*%
%MOMM*%

%ADD10C,2.0000*%
%ADD11R,1.5748X1.5748*%

%LPD*%
G36*
X400253Y-2924098D02*
G01*
X374142Y-2923184D01*
X348742Y-2920542D01*
X323545Y-2916174D01*
X298754Y-2910078D01*
X274421Y-2902356D01*
X250647Y-2892958D01*
X227584Y-2881985D01*
X205333Y-2869438D01*
X183997Y-2855417D01*
X163677Y-2839923D01*
X144424Y-2823159D01*
X126390Y-2805074D01*
X109626Y-2785821D01*
X94183Y-2765450D01*
X80213Y-2744063D01*
X67716Y-2721762D01*
X56743Y-2698699D01*
X47396Y-2674924D01*
X39725Y-2650591D01*
X33680Y-2625750D01*
X29362Y-2600604D01*
X26771Y-2575204D01*
X25908Y-2549398D01*
X25908Y-400608D01*
X26822Y-374142D01*
X29464Y-348742D01*
X33832Y-323545D01*
X39878Y-298754D01*
X47650Y-274421D01*
X57048Y-250647D01*
X68021Y-227584D01*
X80568Y-205333D01*
X94589Y-183997D01*
X110032Y-163677D01*
X126847Y-144424D01*
X144932Y-126390D01*
X164185Y-109626D01*
X184556Y-94183D01*
X205943Y-80213D01*
X228193Y-67716D01*
X251307Y-56743D01*
X275082Y-47396D01*
X299415Y-39725D01*
X324256Y-33680D01*
X349402Y-29362D01*
X374802Y-26771D01*
X400608Y-25908D01*
X13729411Y-25908D01*
X13755878Y-26822D01*
X13781278Y-29464D01*
X13806424Y-33832D01*
X13831265Y-39878D01*
X13855598Y-47650D01*
X13879322Y-57048D01*
X13902385Y-68021D01*
X13924635Y-80568D01*
X13946022Y-94589D01*
X13966342Y-110032D01*
X13985595Y-126847D01*
X14003629Y-144932D01*
X14020393Y-164185D01*
X14035786Y-184556D01*
X14049806Y-205943D01*
X14062303Y-228193D01*
X14073225Y-251307D01*
X14082572Y-275082D01*
X14090294Y-299415D01*
X14096288Y-324256D01*
X14100606Y-349402D01*
X14103197Y-374802D01*
X14104112Y-400608D01*
X14104112Y-2549398D01*
X14103146Y-2575864D01*
X14100556Y-2601264D01*
X14096187Y-2626461D01*
X14090091Y-2651252D01*
X14082369Y-2675585D01*
X14072971Y-2699359D01*
X14061948Y-2722422D01*
X14049451Y-2744673D01*
X14035379Y-2766009D01*
X14019936Y-2786329D01*
X14003121Y-2805582D01*
X13985087Y-2823616D01*
X13965783Y-2840380D01*
X13945412Y-2855823D01*
X13924076Y-2869793D01*
X13901775Y-2882290D01*
X13878712Y-2893212D01*
X13854938Y-2902559D01*
X13830604Y-2910281D01*
X13805763Y-2916326D01*
X13780566Y-2920644D01*
X13755166Y-2923235D01*
X13729411Y-2924098D01*
G37*

%LPC*%
G36*
X13671854Y-2704642D02*
G01*
X13828166Y-2704642D01*
X13834516Y-2703931D01*
X13839951Y-2702001D01*
X13844879Y-2698953D01*
X13848943Y-2694838D01*
X13852042Y-2689961D01*
X13853922Y-2684475D01*
X13854684Y-2678176D01*
X13854684Y-2521813D01*
X13853922Y-2515514D01*
X13852042Y-2510028D01*
X13848943Y-2505151D01*
X13844879Y-2501036D01*
X13839951Y-2497988D01*
X13834516Y-2496058D01*
X13828166Y-2495346D01*
X13671854Y-2495346D01*
X13665504Y-2496058D01*
X13660069Y-2497988D01*
X13655141Y-2501036D01*
X13651077Y-2505151D01*
X13647978Y-2510028D01*
X13646099Y-2515514D01*
X13645388Y-2521813D01*
X13645388Y-2678176D01*
X13646099Y-2684475D01*
X13647978Y-2689961D01*
X13651077Y-2694838D01*
X13655141Y-2698953D01*
X13660069Y-2702001D01*
X13665504Y-2703931D01*
G37*
G36*
X13671854Y-2454656D02*
G01*
X13828166Y-2454656D01*
X13834516Y-2453944D01*
X13839951Y-2452014D01*
X13844879Y-2448966D01*
X13848943Y-2444851D01*
X13852042Y-2439974D01*
X13853922Y-2434488D01*
X13854684Y-2428189D01*
X13854684Y-2271826D01*
X13853922Y-2265527D01*
X13852042Y-2260041D01*
X13848943Y-2255164D01*
X13844879Y-2251049D01*
X13839951Y-2247950D01*
X13834516Y-2246071D01*
X13828166Y-2245360D01*
X13671854Y-2245360D01*
X13665504Y-2246071D01*
X13660069Y-2247950D01*
X13655141Y-2251049D01*
X13651077Y-2255164D01*
X13647978Y-2260041D01*
X13646099Y-2265527D01*
X13645388Y-2271826D01*
X13645388Y-2428189D01*
X13646099Y-2434488D01*
X13647978Y-2439974D01*
X13651077Y-2444851D01*
X13655141Y-2448966D01*
X13660069Y-2452014D01*
X13665504Y-2453944D01*
G37*
G36*
X13671854Y-2204669D02*
G01*
X13828166Y-2204669D01*
X13834516Y-2203907D01*
X13839951Y-2202027D01*
X13844828Y-2198928D01*
X13848943Y-2194864D01*
X13852042Y-2189937D01*
X13853922Y-2184501D01*
X13854633Y-2178151D01*
X13854633Y-2021839D01*
X13853922Y-2015489D01*
X13852042Y-2010054D01*
X13848943Y-2005126D01*
X13844828Y-2001062D01*
X13839951Y-1997964D01*
X13834516Y-1996084D01*
X13828166Y-1995373D01*
X13671854Y-1995373D01*
X13665504Y-1996084D01*
X13660069Y-1997964D01*
X13655141Y-2001062D01*
X13651077Y-2005126D01*
X13647978Y-2010054D01*
X13646048Y-2015489D01*
X13645337Y-2021839D01*
X13645337Y-2178151D01*
X13646048Y-2184501D01*
X13647978Y-2189937D01*
X13651077Y-2194864D01*
X13655141Y-2198928D01*
X13660069Y-2202027D01*
X13665504Y-2203907D01*
G37*
G36*
X9426244Y-2130856D02*
G01*
X9441129Y-2130399D01*
X9455861Y-2128113D01*
X9470186Y-2123998D01*
X9483852Y-2118207D01*
X9496755Y-2110790D01*
X9508642Y-2101799D01*
X9519310Y-2091436D01*
X9528657Y-2079853D01*
X9536480Y-2067204D01*
X9542729Y-2053691D01*
X9547250Y-2039467D01*
X9549942Y-2024837D01*
X9550857Y-2010003D01*
X9549942Y-1995170D01*
X9547250Y-1980539D01*
X9542729Y-1966315D01*
X9536480Y-1952802D01*
X9528657Y-1940153D01*
X9519310Y-1928571D01*
X9508642Y-1918207D01*
X9496755Y-1909216D01*
X9483852Y-1901799D01*
X9470186Y-1896008D01*
X9455861Y-1891944D01*
X9441129Y-1889658D01*
X9426244Y-1889201D01*
X9411462Y-1890572D01*
X9396933Y-1893722D01*
X9382861Y-1898700D01*
X9369552Y-1905304D01*
X9357156Y-1913534D01*
X9345828Y-1923237D01*
X9335820Y-1934210D01*
X9327235Y-1946351D01*
X9320174Y-1959457D01*
X9314789Y-1973376D01*
X9311182Y-1987804D01*
X9309354Y-2002586D01*
X9309354Y-2017471D01*
X9311182Y-2032203D01*
X9314789Y-2046630D01*
X9320174Y-2060549D01*
X9327235Y-2073656D01*
X9335820Y-2085797D01*
X9345828Y-2096770D01*
X9357156Y-2106472D01*
X9369552Y-2114702D01*
X9382861Y-2121306D01*
X9396933Y-2126284D01*
X9411462Y-2129485D01*
G37*
G36*
X6996277Y-2130856D02*
G01*
X7011162Y-2130399D01*
X7025894Y-2128113D01*
X7040168Y-2124049D01*
X7053884Y-2118258D01*
X7066788Y-2110790D01*
X7078675Y-2101799D01*
X7089343Y-2091436D01*
X7098690Y-2079853D01*
X7106513Y-2067204D01*
X7112711Y-2053691D01*
X7117232Y-2039518D01*
X7119975Y-2024888D01*
X7120890Y-2010003D01*
X7119975Y-1995170D01*
X7117232Y-1980539D01*
X7112711Y-1966366D01*
X7106513Y-1952853D01*
X7098690Y-1940153D01*
X7089343Y-1928571D01*
X7078675Y-1918207D01*
X7066788Y-1909267D01*
X7053884Y-1901799D01*
X7040168Y-1896008D01*
X7025894Y-1891944D01*
X7011162Y-1889658D01*
X6996277Y-1889201D01*
X6981444Y-1890572D01*
X6966915Y-1893773D01*
X6952894Y-1898700D01*
X6939584Y-1905355D01*
X6927138Y-1913534D01*
X6915861Y-1923237D01*
X6905853Y-1934260D01*
X6897217Y-1946402D01*
X6890207Y-1959508D01*
X6884822Y-1973376D01*
X6881164Y-1987804D01*
X6879336Y-2002586D01*
X6879336Y-2017471D01*
X6881164Y-2032254D01*
X6884822Y-2046681D01*
X6890207Y-2060549D01*
X6897217Y-2073656D01*
X6905853Y-2085797D01*
X6915861Y-2096820D01*
X6927138Y-2106472D01*
X6939584Y-2114702D01*
X6952894Y-2121357D01*
X6966915Y-2126284D01*
X6981444Y-2129485D01*
G37*
G36*
X11796268Y-2130856D02*
G01*
X11811152Y-2130399D01*
X11825833Y-2128113D01*
X11840159Y-2123998D01*
X11853875Y-2118207D01*
X11866778Y-2110790D01*
X11878665Y-2101799D01*
X11889333Y-2091436D01*
X11898680Y-2079853D01*
X11906504Y-2067204D01*
X11912701Y-2053691D01*
X11917222Y-2039518D01*
X11919966Y-2024888D01*
X11920880Y-2010003D01*
X11919966Y-1995170D01*
X11917222Y-1980539D01*
X11912701Y-1966315D01*
X11906504Y-1952802D01*
X11898680Y-1940153D01*
X11889333Y-1928571D01*
X11878665Y-1918207D01*
X11866778Y-1909216D01*
X11853875Y-1901799D01*
X11840159Y-1896008D01*
X11825833Y-1891944D01*
X11811152Y-1889658D01*
X11796268Y-1889201D01*
X11781434Y-1890572D01*
X11766905Y-1893722D01*
X11752884Y-1898700D01*
X11739524Y-1905304D01*
X11727129Y-1913534D01*
X11715851Y-1923237D01*
X11705793Y-1934210D01*
X11697208Y-1946351D01*
X11690197Y-1959508D01*
X11684812Y-1973376D01*
X11681155Y-1987804D01*
X11679326Y-2002586D01*
X11679326Y-2017471D01*
X11681155Y-2032203D01*
X11684812Y-2046630D01*
X11690197Y-2060549D01*
X11697208Y-2073656D01*
X11705793Y-2085797D01*
X11715851Y-2096770D01*
X11727129Y-2106472D01*
X11739524Y-2114702D01*
X11752884Y-2121357D01*
X11766905Y-2126284D01*
X11781434Y-2129485D01*
G37*
G36*
X4596282Y-2130806D02*
G01*
X4611166Y-2130348D01*
X4625848Y-2128062D01*
X4640173Y-2123998D01*
X4653889Y-2118207D01*
X4666792Y-2110790D01*
X4678680Y-2101799D01*
X4689348Y-2091436D01*
X4698695Y-2079853D01*
X4706518Y-2067204D01*
X4712716Y-2053691D01*
X4717237Y-2039467D01*
X4719980Y-2024837D01*
X4720894Y-2010003D01*
X4719980Y-1995170D01*
X4717237Y-1980539D01*
X4712716Y-1966315D01*
X4706518Y-1952802D01*
X4698695Y-1940153D01*
X4689348Y-1928571D01*
X4678680Y-1918207D01*
X4666792Y-1909216D01*
X4653889Y-1901799D01*
X4640173Y-1896008D01*
X4625848Y-1891893D01*
X4611166Y-1889607D01*
X4596282Y-1889150D01*
X4581448Y-1890522D01*
X4566920Y-1893722D01*
X4552899Y-1898700D01*
X4539589Y-1905304D01*
X4527143Y-1913534D01*
X4515866Y-1923237D01*
X4505807Y-1934210D01*
X4497222Y-1946351D01*
X4490212Y-1959457D01*
X4484827Y-1973376D01*
X4481169Y-1987804D01*
X4479340Y-2002536D01*
X4479340Y-2017420D01*
X4481169Y-2032203D01*
X4484827Y-2046630D01*
X4490212Y-2060549D01*
X4497222Y-2073656D01*
X4505807Y-2085797D01*
X4515866Y-2096770D01*
X4527143Y-2106472D01*
X4539589Y-2114702D01*
X4552899Y-2121306D01*
X4566920Y-2126284D01*
X4581448Y-2129434D01*
G37*
G36*
X2256282Y-2130806D02*
G01*
X2271166Y-2130348D01*
X2285847Y-2128062D01*
X2300173Y-2123998D01*
X2313889Y-2118207D01*
X2326792Y-2110790D01*
X2338679Y-2101799D01*
X2349347Y-2091436D01*
X2358694Y-2079853D01*
X2366518Y-2067204D01*
X2372715Y-2053691D01*
X2377236Y-2039467D01*
X2379980Y-2024837D01*
X2380894Y-2010003D01*
X2379980Y-1995170D01*
X2377236Y-1980539D01*
X2372715Y-1966315D01*
X2366518Y-1952802D01*
X2358694Y-1940153D01*
X2349347Y-1928571D01*
X2338679Y-1918207D01*
X2326792Y-1909216D01*
X2313889Y-1901799D01*
X2300173Y-1896008D01*
X2285847Y-1891893D01*
X2271166Y-1889607D01*
X2256282Y-1889150D01*
X2241448Y-1890522D01*
X2226919Y-1893722D01*
X2212898Y-1898700D01*
X2199589Y-1905304D01*
X2187143Y-1913534D01*
X2175865Y-1923237D01*
X2165807Y-1934210D01*
X2157222Y-1946351D01*
X2150211Y-1959457D01*
X2144826Y-1973376D01*
X2141169Y-1987804D01*
X2139340Y-2002536D01*
X2139340Y-2017420D01*
X2141169Y-2032203D01*
X2144826Y-2046630D01*
X2150211Y-2060549D01*
X2157222Y-2073656D01*
X2165807Y-2085797D01*
X2175865Y-2096770D01*
X2187143Y-2106472D01*
X2199589Y-2114702D01*
X2212898Y-2121306D01*
X2226919Y-2126284D01*
X2241448Y-2129434D01*
G37*
G36*
X7380020Y-2085898D02*
G01*
X7395209Y-2084984D01*
X7410145Y-2082241D01*
X7424674Y-2077720D01*
X7438491Y-2071471D01*
X7451547Y-2063597D01*
X7463485Y-2054250D01*
X7474254Y-2043480D01*
X7483602Y-2031492D01*
X7491475Y-2018487D01*
X7497724Y-2004618D01*
X7502245Y-1990140D01*
X7504988Y-1975154D01*
X7505903Y-1960016D01*
X7504988Y-1944827D01*
X7502245Y-1929892D01*
X7497724Y-1915363D01*
X7491475Y-1901494D01*
X7483602Y-1888489D01*
X7474254Y-1876501D01*
X7463485Y-1865782D01*
X7451547Y-1856384D01*
X7438491Y-1848510D01*
X7424674Y-1842312D01*
X7410145Y-1837791D01*
X7395209Y-1835048D01*
X7380020Y-1834134D01*
X7364831Y-1835048D01*
X7349896Y-1837791D01*
X7335367Y-1842312D01*
X7321499Y-1848510D01*
X7308494Y-1856384D01*
X7296505Y-1865782D01*
X7285786Y-1876501D01*
X7276388Y-1888489D01*
X7268565Y-1901494D01*
X7262317Y-1915363D01*
X7257796Y-1929892D01*
X7255052Y-1944827D01*
X7254138Y-1960016D01*
X7255052Y-1975154D01*
X7257796Y-1990140D01*
X7262317Y-2004618D01*
X7268565Y-2018487D01*
X7276388Y-2031492D01*
X7285786Y-2043480D01*
X7296505Y-2054250D01*
X7308494Y-2063597D01*
X7321499Y-2071471D01*
X7335367Y-2077720D01*
X7349896Y-2082241D01*
X7364831Y-2084984D01*
G37*
G36*
X2640025Y-2085898D02*
G01*
X2655163Y-2084984D01*
X2670149Y-2082241D01*
X2684627Y-2077720D01*
X2698496Y-2071471D01*
X2711500Y-2063597D01*
X2723489Y-2054250D01*
X2734259Y-2043480D01*
X2743606Y-2031492D01*
X2751480Y-2018487D01*
X2757728Y-2004618D01*
X2762250Y-1990140D01*
X2764993Y-1975154D01*
X2765907Y-1960016D01*
X2764993Y-1944827D01*
X2762250Y-1929892D01*
X2757728Y-1915363D01*
X2751480Y-1901494D01*
X2743606Y-1888489D01*
X2734259Y-1876501D01*
X2723489Y-1865782D01*
X2711500Y-1856384D01*
X2698496Y-1848510D01*
X2684627Y-1842312D01*
X2670149Y-1837791D01*
X2655163Y-1835048D01*
X2640025Y-1834134D01*
X2624836Y-1835048D01*
X2609900Y-1837791D01*
X2595372Y-1842312D01*
X2581503Y-1848510D01*
X2568498Y-1856384D01*
X2556510Y-1865782D01*
X2545791Y-1876501D01*
X2536393Y-1888489D01*
X2528519Y-1901494D01*
X2522321Y-1915363D01*
X2517800Y-1929892D01*
X2515057Y-1944827D01*
X2514142Y-1960016D01*
X2515057Y-1975154D01*
X2517800Y-1990140D01*
X2522321Y-2004618D01*
X2528519Y-2018487D01*
X2536393Y-2031492D01*
X2545791Y-2043480D01*
X2556510Y-2054250D01*
X2568498Y-2063597D01*
X2581503Y-2071471D01*
X2595372Y-2077720D01*
X2609900Y-2082241D01*
X2624836Y-2084984D01*
G37*
G36*
X4980025Y-2085898D02*
G01*
X4995164Y-2084984D01*
X5010150Y-2082241D01*
X5024628Y-2077720D01*
X5038496Y-2071471D01*
X5051501Y-2063597D01*
X5063490Y-2054250D01*
X5074259Y-2043480D01*
X5083606Y-2031492D01*
X5091480Y-2018487D01*
X5097729Y-2004618D01*
X5102250Y-1990140D01*
X5104993Y-1975154D01*
X5105908Y-1960016D01*
X5104993Y-1944827D01*
X5102250Y-1929892D01*
X5097729Y-1915363D01*
X5091480Y-1901494D01*
X5083606Y-1888489D01*
X5074259Y-1876501D01*
X5063490Y-1865782D01*
X5051501Y-1856384D01*
X5038496Y-1848510D01*
X5024628Y-1842312D01*
X5010150Y-1837791D01*
X4995164Y-1835048D01*
X4980025Y-1834134D01*
X4964836Y-1835048D01*
X4949901Y-1837791D01*
X4935372Y-1842312D01*
X4921504Y-1848510D01*
X4908499Y-1856384D01*
X4896510Y-1865782D01*
X4885791Y-1876501D01*
X4876393Y-1888489D01*
X4868519Y-1901494D01*
X4862322Y-1915363D01*
X4857800Y-1929892D01*
X4855057Y-1944827D01*
X4854143Y-1960016D01*
X4855057Y-1975154D01*
X4857800Y-1990140D01*
X4862322Y-2004618D01*
X4868519Y-2018487D01*
X4876393Y-2031492D01*
X4885791Y-2043480D01*
X4896510Y-2054250D01*
X4908499Y-2063597D01*
X4921504Y-2071471D01*
X4935372Y-2077720D01*
X4949901Y-2082241D01*
X4964836Y-2084984D01*
G37*
G36*
X534568Y-1705813D02*
G01*
X556310Y-1705356D01*
X577951Y-1702968D01*
X599236Y-1698650D01*
X620115Y-1692452D01*
X640334Y-1684477D01*
X659790Y-1674723D01*
X678332Y-1663293D01*
X695756Y-1650288D01*
X711962Y-1635760D01*
X726795Y-1619910D01*
X740206Y-1602740D01*
X752043Y-1584502D01*
X762203Y-1565300D01*
X770636Y-1545234D01*
X777290Y-1524508D01*
X782066Y-1503273D01*
X784961Y-1481734D01*
X785926Y-1459992D01*
X784961Y-1438249D01*
X782066Y-1416710D01*
X777290Y-1395476D01*
X770636Y-1374749D01*
X762203Y-1354683D01*
X752043Y-1335481D01*
X740206Y-1317244D01*
X726795Y-1300073D01*
X711962Y-1284224D01*
X695756Y-1269695D01*
X678332Y-1256690D01*
X659790Y-1245260D01*
X640334Y-1235506D01*
X620115Y-1227531D01*
X599236Y-1221333D01*
X577951Y-1217015D01*
X556310Y-1214628D01*
X534568Y-1214170D01*
X512876Y-1215593D01*
X491388Y-1218946D01*
X470255Y-1224178D01*
X449681Y-1231290D01*
X429818Y-1240180D01*
X410819Y-1250746D01*
X392836Y-1262989D01*
X376021Y-1276756D01*
X360476Y-1291996D01*
X346303Y-1308506D01*
X333654Y-1326235D01*
X322681Y-1344980D01*
X313334Y-1364640D01*
X305816Y-1385062D01*
X300075Y-1406042D01*
X296265Y-1427429D01*
X294335Y-1449120D01*
X294335Y-1470863D01*
X296265Y-1492554D01*
X300075Y-1513941D01*
X305816Y-1534922D01*
X313334Y-1555343D01*
X322681Y-1575003D01*
X333654Y-1593748D01*
X346303Y-1611477D01*
X360476Y-1627987D01*
X376021Y-1643227D01*
X392836Y-1656994D01*
X410819Y-1669237D01*
X429818Y-1679803D01*
X449681Y-1688693D01*
X470255Y-1695805D01*
X491388Y-1701038D01*
X512876Y-1704390D01*
G37*
G36*
X13384530Y-1705813D02*
G01*
X13406323Y-1705356D01*
X13427913Y-1702968D01*
X13449249Y-1698650D01*
X13470128Y-1692452D01*
X13490346Y-1684477D01*
X13509802Y-1674723D01*
X13528294Y-1663293D01*
X13545718Y-1650288D01*
X13561923Y-1635760D01*
X13576807Y-1619910D01*
X13590219Y-1602740D01*
X13602055Y-1584502D01*
X13612215Y-1565300D01*
X13620648Y-1545234D01*
X13627252Y-1524508D01*
X13632027Y-1503273D01*
X13634923Y-1481734D01*
X13635888Y-1459992D01*
X13634923Y-1438249D01*
X13632027Y-1416710D01*
X13627252Y-1395476D01*
X13620648Y-1374749D01*
X13612215Y-1354683D01*
X13602055Y-1335481D01*
X13590219Y-1317244D01*
X13576807Y-1300073D01*
X13561923Y-1284224D01*
X13545718Y-1269695D01*
X13528294Y-1256690D01*
X13509802Y-1245260D01*
X13490346Y-1235506D01*
X13470128Y-1227531D01*
X13449249Y-1221333D01*
X13427913Y-1217015D01*
X13406323Y-1214628D01*
X13384530Y-1214170D01*
X13362838Y-1215593D01*
X13341350Y-1218946D01*
X13320217Y-1224178D01*
X13299694Y-1231290D01*
X13279831Y-1240180D01*
X13260832Y-1250746D01*
X13242848Y-1262989D01*
X13225983Y-1276756D01*
X13210438Y-1291996D01*
X13196316Y-1308506D01*
X13183666Y-1326235D01*
X13172643Y-1344980D01*
X13163346Y-1364640D01*
X13155777Y-1385062D01*
X13150088Y-1406042D01*
X13146278Y-1427429D01*
X13144347Y-1449120D01*
X13144347Y-1470863D01*
X13146278Y-1492554D01*
X13150088Y-1513941D01*
X13155777Y-1534922D01*
X13163346Y-1555343D01*
X13172643Y-1575003D01*
X13183666Y-1593748D01*
X13196316Y-1611477D01*
X13210438Y-1627987D01*
X13225983Y-1643227D01*
X13242848Y-1656994D01*
X13260832Y-1669237D01*
X13279831Y-1679803D01*
X13299694Y-1688693D01*
X13320217Y-1695805D01*
X13341350Y-1701038D01*
X13362838Y-1704390D01*
G37*
G36*
X6999986Y-1655927D02*
G01*
X7019188Y-1654962D01*
X7038238Y-1652168D01*
X7056881Y-1647494D01*
X7074966Y-1640992D01*
X7092340Y-1632762D01*
X7108850Y-1622907D01*
X7124293Y-1611426D01*
X7138517Y-1598523D01*
X7151420Y-1584299D01*
X7162901Y-1568856D01*
X7172756Y-1552346D01*
X7180986Y-1534972D01*
X7187488Y-1516888D01*
X7192162Y-1498244D01*
X7194956Y-1479194D01*
X7195921Y-1459992D01*
X7194956Y-1440789D01*
X7192162Y-1421790D01*
X7187488Y-1403146D01*
X7180986Y-1385062D01*
X7172756Y-1367688D01*
X7162901Y-1351178D01*
X7151420Y-1335735D01*
X7138517Y-1321511D01*
X7124293Y-1308557D01*
X7108850Y-1297127D01*
X7092340Y-1287221D01*
X7074966Y-1279042D01*
X7056881Y-1272540D01*
X7038238Y-1267866D01*
X7019188Y-1265072D01*
X6999986Y-1264107D01*
X6980783Y-1265072D01*
X6961784Y-1267866D01*
X6943140Y-1272540D01*
X6925056Y-1279042D01*
X6907682Y-1287221D01*
X6891172Y-1297127D01*
X6875729Y-1308557D01*
X6861505Y-1321511D01*
X6848602Y-1335735D01*
X6837121Y-1351178D01*
X6827266Y-1367688D01*
X6819036Y-1385062D01*
X6812534Y-1403146D01*
X6807860Y-1421790D01*
X6805066Y-1440789D01*
X6804101Y-1459992D01*
X6805066Y-1479194D01*
X6807860Y-1498244D01*
X6812534Y-1516888D01*
X6819036Y-1534972D01*
X6827266Y-1552346D01*
X6837121Y-1568856D01*
X6848602Y-1584299D01*
X6861505Y-1598523D01*
X6875729Y-1611426D01*
X6891172Y-1622907D01*
X6907682Y-1632762D01*
X6925056Y-1640992D01*
X6943140Y-1647494D01*
X6961784Y-1652168D01*
X6980783Y-1654962D01*
G37*
G36*
X9430004Y-1655876D02*
G01*
X9449206Y-1654962D01*
X9468205Y-1652117D01*
X9486849Y-1647443D01*
X9504934Y-1640992D01*
X9522358Y-1632762D01*
X9538817Y-1622856D01*
X9554260Y-1611426D01*
X9568535Y-1598523D01*
X9581438Y-1584248D01*
X9592868Y-1568805D01*
X9602774Y-1552346D01*
X9610953Y-1534972D01*
X9617456Y-1516837D01*
X9622129Y-1498193D01*
X9624923Y-1479194D01*
X9625888Y-1459992D01*
X9624923Y-1440789D01*
X9622129Y-1421790D01*
X9617456Y-1403146D01*
X9610953Y-1385011D01*
X9602774Y-1367637D01*
X9592868Y-1351178D01*
X9581438Y-1335735D01*
X9568535Y-1321460D01*
X9554260Y-1308557D01*
X9538817Y-1297127D01*
X9522358Y-1287221D01*
X9504934Y-1278991D01*
X9486849Y-1272540D01*
X9468205Y-1267866D01*
X9449206Y-1265021D01*
X9430004Y-1264107D01*
X9410801Y-1265021D01*
X9391751Y-1267866D01*
X9373108Y-1272540D01*
X9355023Y-1278991D01*
X9337649Y-1287221D01*
X9321139Y-1297127D01*
X9305696Y-1308557D01*
X9291472Y-1321460D01*
X9278569Y-1335735D01*
X9267088Y-1351178D01*
X9257233Y-1367637D01*
X9249003Y-1385011D01*
X9242552Y-1403146D01*
X9237878Y-1421790D01*
X9235033Y-1440789D01*
X9234068Y-1459992D01*
X9235033Y-1479194D01*
X9237878Y-1498193D01*
X9242552Y-1516837D01*
X9249003Y-1534972D01*
X9257233Y-1552346D01*
X9267088Y-1568805D01*
X9278569Y-1584248D01*
X9291472Y-1598523D01*
X9305696Y-1611426D01*
X9321139Y-1622856D01*
X9337649Y-1632762D01*
X9355023Y-1640992D01*
X9373108Y-1647443D01*
X9391751Y-1652117D01*
X9410801Y-1654962D01*
G37*
G36*
X4599990Y-1655876D02*
G01*
X4619193Y-1654962D01*
X4638243Y-1652117D01*
X4656886Y-1647443D01*
X4674971Y-1640992D01*
X4692345Y-1632762D01*
X4708855Y-1622856D01*
X4724298Y-1611426D01*
X4738522Y-1598523D01*
X4751425Y-1584248D01*
X4762906Y-1568805D01*
X4772761Y-1552346D01*
X4780991Y-1534972D01*
X4787493Y-1516837D01*
X4792167Y-1498193D01*
X4794961Y-1479194D01*
X4795926Y-1459992D01*
X4794961Y-1440789D01*
X4792167Y-1421790D01*
X4787493Y-1403146D01*
X4780991Y-1385011D01*
X4772761Y-1367637D01*
X4762906Y-1351178D01*
X4751425Y-1335735D01*
X4738522Y-1321460D01*
X4724298Y-1308557D01*
X4708855Y-1297127D01*
X4692345Y-1287221D01*
X4674971Y-1278991D01*
X4656886Y-1272540D01*
X4638243Y-1267866D01*
X4619193Y-1265021D01*
X4599990Y-1264107D01*
X4580788Y-1265021D01*
X4561789Y-1267866D01*
X4543145Y-1272540D01*
X4525060Y-1278991D01*
X4507687Y-1287221D01*
X4491177Y-1297127D01*
X4475734Y-1308557D01*
X4461510Y-1321460D01*
X4448556Y-1335735D01*
X4437126Y-1351178D01*
X4427220Y-1367637D01*
X4419041Y-1385011D01*
X4412538Y-1403146D01*
X4407865Y-1421790D01*
X4405071Y-1440789D01*
X4404106Y-1459992D01*
X4405071Y-1479194D01*
X4407865Y-1498193D01*
X4412538Y-1516837D01*
X4419041Y-1534972D01*
X4427220Y-1552346D01*
X4437126Y-1568805D01*
X4448556Y-1584248D01*
X4461510Y-1598523D01*
X4475734Y-1611426D01*
X4491177Y-1622856D01*
X4507687Y-1632762D01*
X4525060Y-1640992D01*
X4543145Y-1647443D01*
X4561789Y-1652117D01*
X4580788Y-1654962D01*
G37*
G36*
X11799976Y-1655876D02*
G01*
X11819178Y-1654962D01*
X11838228Y-1652117D01*
X11856872Y-1647443D01*
X11874957Y-1640992D01*
X11892330Y-1632762D01*
X11908840Y-1622856D01*
X11924284Y-1611426D01*
X11938508Y-1598523D01*
X11951411Y-1584248D01*
X11962892Y-1568856D01*
X11972747Y-1552346D01*
X11980976Y-1534972D01*
X11987479Y-1516888D01*
X11992102Y-1498193D01*
X11994946Y-1479194D01*
X11995912Y-1459992D01*
X11994946Y-1440789D01*
X11992102Y-1421790D01*
X11987479Y-1403146D01*
X11980976Y-1385011D01*
X11972747Y-1367637D01*
X11962892Y-1351178D01*
X11951411Y-1335735D01*
X11938508Y-1321460D01*
X11924284Y-1308557D01*
X11908840Y-1297127D01*
X11892330Y-1287221D01*
X11874957Y-1278991D01*
X11856872Y-1272540D01*
X11838228Y-1267866D01*
X11819178Y-1265021D01*
X11799976Y-1264107D01*
X11780774Y-1265021D01*
X11761774Y-1267866D01*
X11743131Y-1272540D01*
X11725046Y-1278991D01*
X11707622Y-1287221D01*
X11691162Y-1297127D01*
X11675719Y-1308557D01*
X11661495Y-1321460D01*
X11648541Y-1335735D01*
X11637111Y-1351178D01*
X11627205Y-1367637D01*
X11619026Y-1385011D01*
X11612524Y-1403146D01*
X11607850Y-1421790D01*
X11605056Y-1440789D01*
X11604091Y-1459992D01*
X11605056Y-1479194D01*
X11607850Y-1498193D01*
X11612524Y-1516888D01*
X11619026Y-1534972D01*
X11627205Y-1552346D01*
X11637111Y-1568856D01*
X11648541Y-1584248D01*
X11661495Y-1598523D01*
X11675719Y-1611426D01*
X11691162Y-1622856D01*
X11707622Y-1632762D01*
X11725046Y-1640992D01*
X11743131Y-1647443D01*
X11761774Y-1652117D01*
X11780774Y-1654962D01*
G37*
G36*
X2259990Y-1655876D02*
G01*
X2279192Y-1654962D01*
X2298242Y-1652117D01*
X2316886Y-1647443D01*
X2334971Y-1640992D01*
X2352344Y-1632762D01*
X2368854Y-1622856D01*
X2384298Y-1611426D01*
X2398522Y-1598523D01*
X2411425Y-1584248D01*
X2422906Y-1568805D01*
X2432761Y-1552346D01*
X2440990Y-1534972D01*
X2447493Y-1516837D01*
X2452166Y-1498193D01*
X2454960Y-1479194D01*
X2455926Y-1459992D01*
X2454960Y-1440789D01*
X2452166Y-1421790D01*
X2447493Y-1403146D01*
X2440990Y-1385011D01*
X2432761Y-1367637D01*
X2422906Y-1351178D01*
X2411425Y-1335735D01*
X2398522Y-1321460D01*
X2384298Y-1308557D01*
X2368854Y-1297127D01*
X2352344Y-1287221D01*
X2334971Y-1278991D01*
X2316886Y-1272540D01*
X2298242Y-1267866D01*
X2279192Y-1265021D01*
X2259990Y-1264107D01*
X2240788Y-1265021D01*
X2221788Y-1267866D01*
X2203145Y-1272540D01*
X2185060Y-1278991D01*
X2167686Y-1287221D01*
X2151176Y-1297127D01*
X2135733Y-1308557D01*
X2121509Y-1321460D01*
X2108555Y-1335735D01*
X2097125Y-1351178D01*
X2087219Y-1367637D01*
X2079040Y-1385011D01*
X2072538Y-1403146D01*
X2067864Y-1421790D01*
X2065070Y-1440789D01*
X2064105Y-1459992D01*
X2065070Y-1479194D01*
X2067864Y-1498193D01*
X2072538Y-1516837D01*
X2079040Y-1534972D01*
X2087219Y-1552346D01*
X2097125Y-1568805D01*
X2108555Y-1584248D01*
X2121509Y-1598523D01*
X2135733Y-1611426D01*
X2151176Y-1622856D01*
X2167686Y-1632762D01*
X2185060Y-1640992D01*
X2203145Y-1647443D01*
X2221788Y-1652117D01*
X2240788Y-1654962D01*
G37*
G36*
X8783675Y-1572463D02*
G01*
X8783675Y-1516329D01*
X8727592Y-1516329D01*
X8728557Y-1518513D01*
X8736380Y-1531518D01*
X8745778Y-1543456D01*
X8756548Y-1554226D01*
X8768486Y-1563624D01*
X8781491Y-1571447D01*
G37*
G36*
X7646365Y-1572463D02*
G01*
X7648498Y-1571447D01*
X7661503Y-1563624D01*
X7673492Y-1554226D01*
X7684211Y-1543456D01*
X7693609Y-1531518D01*
X7701483Y-1518513D01*
X7702448Y-1516329D01*
X7646365Y-1516329D01*
G37*
G36*
X2906318Y-1572463D02*
G01*
X2908503Y-1571447D01*
X2921508Y-1563624D01*
X2933496Y-1554226D01*
X2944215Y-1543456D01*
X2953613Y-1531518D01*
X2961436Y-1518513D01*
X2962452Y-1516329D01*
X2906318Y-1516329D01*
G37*
G36*
X5133644Y-1572463D02*
G01*
X5133644Y-1516329D01*
X5077561Y-1516329D01*
X5078526Y-1518513D01*
X5086400Y-1531518D01*
X5095748Y-1543456D01*
X5106517Y-1554226D01*
X5118455Y-1563624D01*
X5131511Y-1571447D01*
G37*
G36*
X8896350Y-1572463D02*
G01*
X8898534Y-1571447D01*
X8911539Y-1563624D01*
X8923477Y-1554226D01*
X8934246Y-1543456D01*
X8943594Y-1531518D01*
X8951468Y-1518513D01*
X8952433Y-1516329D01*
X8896350Y-1516329D01*
G37*
G36*
X11153648Y-1572463D02*
G01*
X11153648Y-1516329D01*
X11097564Y-1516329D01*
X11098530Y-1518513D01*
X11106404Y-1531518D01*
X11115802Y-1543456D01*
X11126520Y-1554226D01*
X11138509Y-1563624D01*
X11151514Y-1571447D01*
G37*
G36*
X11266373Y-1572463D02*
G01*
X11268506Y-1571447D01*
X11281511Y-1563624D01*
X11293500Y-1554226D01*
X11304219Y-1543456D01*
X11313617Y-1531518D01*
X11321491Y-1518513D01*
X11322456Y-1516329D01*
X11266373Y-1516329D01*
G37*
G36*
X2793644Y-1572463D02*
G01*
X2793644Y-1516329D01*
X2737561Y-1516329D01*
X2738526Y-1518513D01*
X2746400Y-1531518D01*
X2755747Y-1543456D01*
X2766517Y-1554226D01*
X2778455Y-1563624D01*
X2791510Y-1571447D01*
G37*
G36*
X7533640Y-1572463D02*
G01*
X7533640Y-1516329D01*
X7477556Y-1516329D01*
X7478522Y-1518513D01*
X7486396Y-1531518D01*
X7495743Y-1543456D01*
X7506512Y-1554226D01*
X7518501Y-1563624D01*
X7531506Y-1571447D01*
G37*
G36*
X5246319Y-1572463D02*
G01*
X5248503Y-1571447D01*
X5261508Y-1563624D01*
X5273497Y-1554226D01*
X5284216Y-1543456D01*
X5293614Y-1531518D01*
X5301437Y-1518513D01*
X5302453Y-1516329D01*
X5246319Y-1516329D01*
G37*
G36*
X8727592Y-1403654D02*
G01*
X8783675Y-1403654D01*
X8783675Y-1347571D01*
X8781491Y-1348536D01*
X8768486Y-1356410D01*
X8756548Y-1365758D01*
X8745778Y-1376527D01*
X8736380Y-1388465D01*
X8728557Y-1401521D01*
G37*
G36*
X7646365Y-1403654D02*
G01*
X7702448Y-1403654D01*
X7701483Y-1401521D01*
X7693609Y-1388465D01*
X7684211Y-1376527D01*
X7673492Y-1365758D01*
X7661503Y-1356410D01*
X7648498Y-1348536D01*
X7646365Y-1347571D01*
G37*
G36*
X5077561Y-1403654D02*
G01*
X5133644Y-1403654D01*
X5133644Y-1347571D01*
X5131511Y-1348536D01*
X5118455Y-1356410D01*
X5106517Y-1365758D01*
X5095748Y-1376527D01*
X5086400Y-1388465D01*
X5078526Y-1401521D01*
G37*
G36*
X2906318Y-1403654D02*
G01*
X2962452Y-1403654D01*
X2961436Y-1401521D01*
X2953613Y-1388465D01*
X2944215Y-1376527D01*
X2933496Y-1365758D01*
X2921508Y-1356410D01*
X2908503Y-1348536D01*
X2906318Y-1347571D01*
G37*
G36*
X11097564Y-1403654D02*
G01*
X11153648Y-1403654D01*
X11153648Y-1347571D01*
X11151514Y-1348536D01*
X11138509Y-1356410D01*
X11126520Y-1365758D01*
X11115802Y-1376527D01*
X11106404Y-1388465D01*
X11098530Y-1401521D01*
G37*
G36*
X8896350Y-1403654D02*
G01*
X8952433Y-1403654D01*
X8951468Y-1401521D01*
X8943594Y-1388465D01*
X8934246Y-1376527D01*
X8923477Y-1365758D01*
X8911539Y-1356410D01*
X8898534Y-1348536D01*
X8896350Y-1347571D01*
G37*
G36*
X11266373Y-1403654D02*
G01*
X11322456Y-1403654D01*
X11321491Y-1401521D01*
X11313617Y-1388465D01*
X11304219Y-1376527D01*
X11293500Y-1365758D01*
X11281511Y-1356410D01*
X11268506Y-1348536D01*
X11266373Y-1347571D01*
G37*
G36*
X2737561Y-1403654D02*
G01*
X2793644Y-1403654D01*
X2793644Y-1347571D01*
X2791510Y-1348536D01*
X2778455Y-1356410D01*
X2766517Y-1365758D01*
X2755747Y-1376527D01*
X2746400Y-1388465D01*
X2738526Y-1401521D01*
G37*
G36*
X5246319Y-1403654D02*
G01*
X5302453Y-1403654D01*
X5301437Y-1401521D01*
X5293614Y-1388465D01*
X5284216Y-1376527D01*
X5273497Y-1365758D01*
X5261508Y-1356410D01*
X5248503Y-1348536D01*
X5246319Y-1347571D01*
G37*
G36*
X7477556Y-1403654D02*
G01*
X7533640Y-1403654D01*
X7533640Y-1347571D01*
X7531506Y-1348536D01*
X7518501Y-1356410D01*
X7506512Y-1365758D01*
X7495743Y-1376527D01*
X7486396Y-1388465D01*
X7478522Y-1401521D01*
G37*
G36*
X11419992Y-1085900D02*
G01*
X11435181Y-1084986D01*
X11450116Y-1082243D01*
X11464645Y-1077722D01*
X11478514Y-1071473D01*
X11491518Y-1063599D01*
X11503456Y-1054252D01*
X11514226Y-1043482D01*
X11523573Y-1031494D01*
X11531447Y-1018489D01*
X11537696Y-1004620D01*
X11542217Y-990142D01*
X11544960Y-975156D01*
X11545874Y-960018D01*
X11544960Y-944829D01*
X11542217Y-929894D01*
X11537696Y-915365D01*
X11531447Y-901496D01*
X11523573Y-888492D01*
X11514226Y-876503D01*
X11503456Y-865784D01*
X11491518Y-856386D01*
X11478514Y-848512D01*
X11464645Y-842314D01*
X11450116Y-837793D01*
X11435181Y-835050D01*
X11419992Y-834136D01*
X11404803Y-835050D01*
X11389868Y-837793D01*
X11375339Y-842314D01*
X11361470Y-848512D01*
X11348466Y-856386D01*
X11336528Y-865784D01*
X11325758Y-876503D01*
X11316360Y-888492D01*
X11308537Y-901496D01*
X11302288Y-915365D01*
X11297767Y-929894D01*
X11295024Y-944829D01*
X11294110Y-960018D01*
X11295024Y-975156D01*
X11297767Y-990142D01*
X11302288Y-1004620D01*
X11308537Y-1018489D01*
X11316360Y-1031494D01*
X11325758Y-1043482D01*
X11336528Y-1054252D01*
X11348466Y-1063599D01*
X11361470Y-1071473D01*
X11375339Y-1077722D01*
X11389868Y-1082243D01*
X11404803Y-1084986D01*
G37*
G36*
X9049969Y-1085900D02*
G01*
X9065158Y-1084986D01*
X9080093Y-1082243D01*
X9094622Y-1077722D01*
X9108490Y-1071473D01*
X9121495Y-1063599D01*
X9133484Y-1054252D01*
X9144203Y-1043482D01*
X9153601Y-1031494D01*
X9161475Y-1018489D01*
X9167672Y-1004620D01*
X9172244Y-990142D01*
X9174937Y-975156D01*
X9175902Y-960018D01*
X9174937Y-944829D01*
X9172244Y-929894D01*
X9167672Y-915365D01*
X9161475Y-901496D01*
X9153601Y-888492D01*
X9144203Y-876503D01*
X9133484Y-865784D01*
X9121495Y-856386D01*
X9108490Y-848512D01*
X9094622Y-842314D01*
X9080093Y-837793D01*
X9065158Y-835050D01*
X9049969Y-834136D01*
X9034830Y-835050D01*
X9019844Y-837793D01*
X9005366Y-842314D01*
X8991498Y-848512D01*
X8978493Y-856386D01*
X8966504Y-865784D01*
X8955735Y-876503D01*
X8946388Y-888492D01*
X8938514Y-901496D01*
X8932265Y-915365D01*
X8927744Y-929894D01*
X8925001Y-944829D01*
X8924086Y-960018D01*
X8925001Y-975156D01*
X8927744Y-990142D01*
X8932265Y-1004620D01*
X8938514Y-1018489D01*
X8946388Y-1031494D01*
X8955735Y-1043482D01*
X8966504Y-1054252D01*
X8978493Y-1063599D01*
X8991498Y-1071473D01*
X9005366Y-1077722D01*
X9019844Y-1082243D01*
X9034830Y-1084986D01*
G37*
G36*
X11796268Y-1030833D02*
G01*
X11811152Y-1030376D01*
X11825833Y-1028090D01*
X11840159Y-1023975D01*
X11853875Y-1018184D01*
X11866778Y-1010767D01*
X11878665Y-1001776D01*
X11889333Y-991412D01*
X11898680Y-979830D01*
X11906504Y-967181D01*
X11912701Y-953668D01*
X11917222Y-939495D01*
X11919966Y-924864D01*
X11920880Y-909980D01*
X11919966Y-895146D01*
X11917222Y-880516D01*
X11912701Y-866292D01*
X11906504Y-852779D01*
X11898680Y-840130D01*
X11889333Y-828548D01*
X11878665Y-818184D01*
X11866778Y-809193D01*
X11853875Y-801776D01*
X11840159Y-795985D01*
X11825833Y-791921D01*
X11811152Y-789635D01*
X11796268Y-789178D01*
X11781434Y-790549D01*
X11766905Y-793699D01*
X11752884Y-798677D01*
X11739524Y-805281D01*
X11727129Y-813511D01*
X11715851Y-823214D01*
X11705793Y-834186D01*
X11697208Y-846328D01*
X11690197Y-859485D01*
X11684812Y-873353D01*
X11681155Y-887780D01*
X11679326Y-902563D01*
X11679326Y-917448D01*
X11681155Y-932180D01*
X11684812Y-946607D01*
X11690197Y-960526D01*
X11697208Y-973632D01*
X11705793Y-985774D01*
X11715851Y-996746D01*
X11727129Y-1006449D01*
X11739524Y-1014679D01*
X11752884Y-1021334D01*
X11766905Y-1026261D01*
X11781434Y-1029462D01*
G37*
G36*
X6996277Y-1030833D02*
G01*
X7011162Y-1030376D01*
X7025894Y-1028090D01*
X7040168Y-1024026D01*
X7053884Y-1018235D01*
X7066788Y-1010767D01*
X7078675Y-1001776D01*
X7089343Y-991412D01*
X7098690Y-979830D01*
X7106513Y-967181D01*
X7112711Y-953668D01*
X7117232Y-939495D01*
X7119975Y-924864D01*
X7120890Y-909980D01*
X7119975Y-895146D01*
X7117232Y-880516D01*
X7112711Y-866343D01*
X7106513Y-852830D01*
X7098690Y-840130D01*
X7089343Y-828548D01*
X7078675Y-818184D01*
X7066788Y-809244D01*
X7053884Y-801776D01*
X7040168Y-795985D01*
X7025894Y-791921D01*
X7011162Y-789635D01*
X6996277Y-789178D01*
X6981444Y-790549D01*
X6966915Y-793750D01*
X6952894Y-798677D01*
X6939584Y-805332D01*
X6927138Y-813511D01*
X6915861Y-823214D01*
X6905853Y-834237D01*
X6897217Y-846378D01*
X6890207Y-859485D01*
X6884822Y-873353D01*
X6881164Y-887780D01*
X6879336Y-902563D01*
X6879336Y-917448D01*
X6881164Y-932230D01*
X6884822Y-946658D01*
X6890207Y-960526D01*
X6897217Y-973632D01*
X6905853Y-985774D01*
X6915861Y-996797D01*
X6927138Y-1006449D01*
X6939584Y-1014679D01*
X6952894Y-1021334D01*
X6966915Y-1026261D01*
X6981444Y-1029462D01*
G37*
G36*
X9426244Y-1030833D02*
G01*
X9441129Y-1030376D01*
X9455861Y-1028090D01*
X9470186Y-1023975D01*
X9483852Y-1018184D01*
X9496755Y-1010767D01*
X9508642Y-1001776D01*
X9519310Y-991412D01*
X9528657Y-979830D01*
X9536480Y-967181D01*
X9542729Y-953668D01*
X9547250Y-939444D01*
X9549942Y-924814D01*
X9550857Y-909980D01*
X9549942Y-895146D01*
X9547250Y-880516D01*
X9542729Y-866292D01*
X9536480Y-852779D01*
X9528657Y-840130D01*
X9519310Y-828548D01*
X9508642Y-818184D01*
X9496755Y-809193D01*
X9483852Y-801776D01*
X9470186Y-795985D01*
X9455861Y-791921D01*
X9441129Y-789635D01*
X9426244Y-789178D01*
X9411462Y-790549D01*
X9396933Y-793699D01*
X9382861Y-798677D01*
X9369552Y-805281D01*
X9357156Y-813511D01*
X9345828Y-823214D01*
X9335820Y-834186D01*
X9327235Y-846328D01*
X9320174Y-859434D01*
X9314789Y-873353D01*
X9311182Y-887780D01*
X9309354Y-902563D01*
X9309354Y-917448D01*
X9311182Y-932180D01*
X9314789Y-946607D01*
X9320174Y-960526D01*
X9327235Y-973632D01*
X9335820Y-985774D01*
X9345828Y-996746D01*
X9357156Y-1006449D01*
X9369552Y-1014679D01*
X9382861Y-1021283D01*
X9396933Y-1026261D01*
X9411462Y-1029462D01*
G37*
G36*
X2256282Y-1030782D02*
G01*
X2271166Y-1030325D01*
X2285847Y-1028039D01*
X2300173Y-1023975D01*
X2313889Y-1018184D01*
X2326792Y-1010767D01*
X2338679Y-1001776D01*
X2349347Y-991412D01*
X2358694Y-979830D01*
X2366518Y-967181D01*
X2372715Y-953668D01*
X2377236Y-939444D01*
X2379980Y-924814D01*
X2380894Y-909980D01*
X2379980Y-895146D01*
X2377236Y-880516D01*
X2372715Y-866292D01*
X2366518Y-852779D01*
X2358694Y-840130D01*
X2349347Y-828548D01*
X2338679Y-818184D01*
X2326792Y-809193D01*
X2313889Y-801776D01*
X2300173Y-795985D01*
X2285847Y-791870D01*
X2271166Y-789584D01*
X2256282Y-789127D01*
X2241448Y-790498D01*
X2226919Y-793699D01*
X2212898Y-798677D01*
X2199589Y-805281D01*
X2187143Y-813511D01*
X2175865Y-823214D01*
X2165807Y-834186D01*
X2157222Y-846328D01*
X2150211Y-859434D01*
X2144826Y-873353D01*
X2141169Y-887780D01*
X2139340Y-902512D01*
X2139340Y-917397D01*
X2141169Y-932180D01*
X2144826Y-946607D01*
X2150211Y-960526D01*
X2157222Y-973632D01*
X2165807Y-985774D01*
X2175865Y-996746D01*
X2187143Y-1006449D01*
X2199589Y-1014679D01*
X2212898Y-1021283D01*
X2226919Y-1026261D01*
X2241448Y-1029411D01*
G37*
G36*
X4596282Y-1030782D02*
G01*
X4611166Y-1030325D01*
X4625848Y-1028039D01*
X4640173Y-1023975D01*
X4653889Y-1018184D01*
X4666792Y-1010767D01*
X4678680Y-1001776D01*
X4689348Y-991412D01*
X4698695Y-979830D01*
X4706518Y-967181D01*
X4712716Y-953668D01*
X4717237Y-939444D01*
X4719980Y-924814D01*
X4720894Y-909980D01*
X4719980Y-895146D01*
X4717237Y-880516D01*
X4712716Y-866292D01*
X4706518Y-852779D01*
X4698695Y-840130D01*
X4689348Y-828548D01*
X4678680Y-818184D01*
X4666792Y-809193D01*
X4653889Y-801776D01*
X4640173Y-795985D01*
X4625848Y-791870D01*
X4611166Y-789584D01*
X4596282Y-789127D01*
X4581448Y-790498D01*
X4566920Y-793699D01*
X4552899Y-798677D01*
X4539589Y-805281D01*
X4527143Y-813511D01*
X4515866Y-823214D01*
X4505807Y-834186D01*
X4497222Y-846328D01*
X4490212Y-859434D01*
X4484827Y-873353D01*
X4481169Y-887780D01*
X4479340Y-902512D01*
X4479340Y-917397D01*
X4481169Y-932180D01*
X4484827Y-946607D01*
X4490212Y-960526D01*
X4497222Y-973632D01*
X4505807Y-985774D01*
X4515866Y-996746D01*
X4527143Y-1006449D01*
X4539589Y-1014679D01*
X4552899Y-1021283D01*
X4566920Y-1026261D01*
X4581448Y-1029411D01*
G37*
G36*
X13671854Y-904646D02*
G01*
X13828166Y-904646D01*
X13834516Y-903935D01*
X13839951Y-902004D01*
X13844879Y-898956D01*
X13848943Y-894842D01*
X13852042Y-889965D01*
X13853922Y-884478D01*
X13854684Y-878179D01*
X13854684Y-721817D01*
X13853922Y-715518D01*
X13852042Y-710031D01*
X13848943Y-705154D01*
X13844879Y-701040D01*
X13839951Y-697992D01*
X13834516Y-696061D01*
X13828166Y-695350D01*
X13671854Y-695350D01*
X13665504Y-696061D01*
X13660069Y-697992D01*
X13655141Y-701040D01*
X13651077Y-705154D01*
X13647978Y-710031D01*
X13646099Y-715518D01*
X13645388Y-721817D01*
X13645388Y-878179D01*
X13646099Y-884478D01*
X13647978Y-889965D01*
X13651077Y-894842D01*
X13655141Y-898956D01*
X13660069Y-902004D01*
X13665504Y-903935D01*
G37*
G36*
X13671854Y-654659D02*
G01*
X13828166Y-654659D01*
X13834516Y-653948D01*
X13839951Y-652018D01*
X13844879Y-648970D01*
X13848943Y-644855D01*
X13852042Y-639978D01*
X13853922Y-634492D01*
X13854684Y-628192D01*
X13854684Y-471830D01*
X13853922Y-465531D01*
X13852042Y-460044D01*
X13848943Y-455168D01*
X13844879Y-451053D01*
X13839951Y-448005D01*
X13834516Y-446074D01*
X13828166Y-445363D01*
X13671854Y-445363D01*
X13665504Y-446074D01*
X13660069Y-448005D01*
X13655141Y-451053D01*
X13651077Y-455168D01*
X13647978Y-460044D01*
X13646099Y-465531D01*
X13645388Y-471830D01*
X13645388Y-628192D01*
X13646099Y-634492D01*
X13647978Y-639978D01*
X13651077Y-644855D01*
X13655141Y-648970D01*
X13660069Y-652018D01*
X13665504Y-653948D01*
G37*
G36*
X13671854Y-404672D02*
G01*
X13704265Y-404672D01*
X13704265Y-345744D01*
X13645337Y-345744D01*
X13645337Y-378155D01*
X13646048Y-384505D01*
X13647978Y-389940D01*
X13651077Y-394868D01*
X13655141Y-398932D01*
X13660069Y-402031D01*
X13665504Y-403910D01*
G37*
G36*
X13795705Y-404672D02*
G01*
X13828166Y-404672D01*
X13834516Y-403910D01*
X13839951Y-402031D01*
X13844828Y-398932D01*
X13848943Y-394868D01*
X13852042Y-389940D01*
X13853922Y-384505D01*
X13854633Y-378155D01*
X13854633Y-345744D01*
X13795705Y-345744D01*
G37*
G36*
X13795705Y-254304D02*
G01*
X13854633Y-254304D01*
X13854633Y-221843D01*
X13853922Y-215493D01*
X13852042Y-210058D01*
X13848943Y-205130D01*
X13844828Y-201066D01*
X13839951Y-197967D01*
X13834516Y-196088D01*
X13828166Y-195376D01*
X13795705Y-195376D01*
G37*
G36*
X13645337Y-254304D02*
G01*
X13704265Y-254304D01*
X13704265Y-195376D01*
X13671854Y-195376D01*
X13665504Y-196088D01*
X13660069Y-197967D01*
X13655141Y-201066D01*
X13651077Y-205130D01*
X13647978Y-210058D01*
X13646048Y-215493D01*
X13645337Y-221843D01*
G37*

%LPD*%
D10*
G01*
X11210010Y-1459992D03*
G01*
X11419992Y-959993D03*
G01*
X8840012Y-1459992D03*
G01*
X9049994Y-959993D03*
G01*
X7590002Y-1460017D03*
G01*
X7380020Y-1960016D03*
G01*
X5190007Y-1459992D03*
G01*
X4980025Y-1959990D03*
G01*
X2850006Y-1459992D03*
G01*
X2640025Y-1959990D03*
D11*
G01*
X13750010Y-550011D03*
G01*
X13750010Y-799998D03*
G01*
X13750010Y-2099995D03*
G01*
X13750010Y-2350007D03*
G01*
X13750010Y-2599994D03*
G01*
X13750010Y-299999D03*
M02*
