G04 Layer: BottomSilkscreenLayer*
G04 EasyEDA v6.5.34, 2023-08-17 23:02:58*
G04 80a5892e81db4367b3f60eb2337eeb35,8ef1d5b344d144c2b0b16805c6f0e890,10*
G04 Gerber Generator version 0.2*
G04 Scale: 100 percent, Rotated: No, Reflected: No *
G04 Dimensions in millimeters *
G04 leading zeros omitted , absolute positions ,4 integer and 5 decimal *
%FSLAX45Y45*%
%MOMM*%

%ADD10C,0.2032*%

%LPD*%
D10*
X8179955Y-2330335D02*
G01*
X8189191Y-2311862D01*
X8207664Y-2293388D01*
X8226135Y-2284153D01*
X8263082Y-2284153D01*
X8281555Y-2293388D01*
X8300026Y-2311862D01*
X8309264Y-2330335D01*
X8318500Y-2358044D01*
X8318500Y-2404224D01*
X8309264Y-2431935D01*
X8300026Y-2450406D01*
X8281555Y-2468879D01*
X8263082Y-2478115D01*
X8226135Y-2478115D01*
X8207664Y-2468879D01*
X8189191Y-2450406D01*
X8179955Y-2431935D01*
X8179955Y-2404224D01*
X8226135Y-2404224D02*
G01*
X8179955Y-2404224D01*
X8118995Y-2284153D02*
G01*
X8118995Y-2478115D01*
X7989684Y-2284153D02*
G01*
X7989684Y-2478115D01*
X8118995Y-2376515D02*
G01*
X7989684Y-2376515D01*
X7910253Y-2284153D02*
G01*
X7808653Y-2284153D01*
X7864071Y-2358044D01*
X7836362Y-2358044D01*
X7817888Y-2367279D01*
X7808653Y-2376515D01*
X7799415Y-2404224D01*
X7799415Y-2422697D01*
X7808653Y-2450406D01*
X7827124Y-2468879D01*
X7854835Y-2478115D01*
X7882544Y-2478115D01*
X7910253Y-2468879D01*
X7919488Y-2459644D01*
X7928724Y-2441171D01*
X7738455Y-2284153D02*
G01*
X7738455Y-2478115D01*
X7738455Y-2284153D02*
G01*
X7618384Y-2284153D01*
X7738455Y-2376515D02*
G01*
X7664564Y-2376515D01*
X7557424Y-2284153D02*
G01*
X7557424Y-2478115D01*
X7557424Y-2284153D02*
G01*
X7474295Y-2284153D01*
X7446586Y-2293388D01*
X7437351Y-2302624D01*
X7428115Y-2321097D01*
X7428115Y-2339571D01*
X7437351Y-2358044D01*
X7446586Y-2367279D01*
X7474295Y-2376515D01*
X7557424Y-2376515D01*
X7492768Y-2376515D02*
G01*
X7428115Y-2478115D01*
X7367155Y-2284153D02*
G01*
X7367155Y-2478115D01*
X7367155Y-2284153D02*
G01*
X7247082Y-2284153D01*
X7367155Y-2376515D02*
G01*
X7293264Y-2376515D01*
X7367155Y-2478115D02*
G01*
X7247082Y-2478115D01*
X7121466Y-2284153D02*
G01*
X7121466Y-2478115D01*
X7186122Y-2284153D02*
G01*
X7056813Y-2284153D01*
X6866544Y-2311862D02*
G01*
X6885015Y-2293388D01*
X6912724Y-2284153D01*
X6949671Y-2284153D01*
X6977379Y-2293388D01*
X6995853Y-2311862D01*
X6995853Y-2330335D01*
X6986615Y-2348806D01*
X6977379Y-2358044D01*
X6958906Y-2367279D01*
X6903488Y-2385753D01*
X6885015Y-2394988D01*
X6875779Y-2404224D01*
X6866544Y-2422697D01*
X6866544Y-2450406D01*
X6885015Y-2468879D01*
X6912724Y-2478115D01*
X6949671Y-2478115D01*
X6977379Y-2468879D01*
X6995853Y-2450406D01*
X6805584Y-2542771D02*
G01*
X6639328Y-2542771D01*
X6578368Y-2284153D02*
G01*
X6504477Y-2478115D01*
X6430586Y-2284153D02*
G01*
X6504477Y-2478115D01*
X6360391Y-2330335D02*
G01*
X6360391Y-2321097D01*
X6351155Y-2302624D01*
X6341917Y-2293388D01*
X6323444Y-2284153D01*
X6286500Y-2284153D01*
X6268026Y-2293388D01*
X6258791Y-2302624D01*
X6249555Y-2321097D01*
X6249555Y-2339571D01*
X6258791Y-2358044D01*
X6277264Y-2385753D01*
X6369626Y-2478115D01*
X6240317Y-2478115D01*
M02*
