G04 Layer: TopSilkscreenLayer*
G04 EasyEDA v6.5.34, 2023-08-17 23:02:58*
G04 80a5892e81db4367b3f60eb2337eeb35,8ef1d5b344d144c2b0b16805c6f0e890,10*
G04 Gerber Generator version 0.2*
G04 Scale: 100 percent, Rotated: No, Reflected: No *
G04 Dimensions in millimeters *
G04 leading zeros omitted , absolute positions ,4 integer and 5 decimal *
%FSLAX45Y45*%
%MOMM*%

%ADD10C,0.1524*%
%ADD11C,0.1501*%
%ADD12C,0.2032*%
%ADD13C,0.2030*%

%LPD*%
D10*
X10709577Y-1387355D02*
G01*
X10699163Y-1397769D01*
X10694083Y-1413263D01*
X10694083Y-1434091D01*
X10699163Y-1449585D01*
X10709577Y-1459999D01*
X10719991Y-1459999D01*
X10730405Y-1454919D01*
X10735739Y-1449585D01*
X10740819Y-1439171D01*
X10751233Y-1407929D01*
X10756313Y-1397769D01*
X10761647Y-1392435D01*
X10772061Y-1387355D01*
X10787555Y-1387355D01*
X10797969Y-1397769D01*
X10803049Y-1413263D01*
X10803049Y-1434091D01*
X10797969Y-1449585D01*
X10787555Y-1459999D01*
X10694083Y-1353065D02*
G01*
X10803049Y-1326903D01*
X10694083Y-1300995D02*
G01*
X10803049Y-1326903D01*
X10694083Y-1300995D02*
G01*
X10803049Y-1275087D01*
X10694083Y-1249179D02*
G01*
X10803049Y-1275087D01*
X10714911Y-1214889D02*
G01*
X10709577Y-1204475D01*
X10694083Y-1188727D01*
X10803049Y-1188727D01*
X8339576Y-1387355D02*
G01*
X8329162Y-1397769D01*
X8324082Y-1413263D01*
X8324082Y-1434091D01*
X8329162Y-1449585D01*
X8339576Y-1459999D01*
X8349990Y-1459999D01*
X8360404Y-1454919D01*
X8365738Y-1449585D01*
X8370818Y-1439171D01*
X8381232Y-1407929D01*
X8386312Y-1397769D01*
X8391646Y-1392435D01*
X8402060Y-1387355D01*
X8417554Y-1387355D01*
X8427968Y-1397769D01*
X8433048Y-1413263D01*
X8433048Y-1434091D01*
X8427968Y-1449585D01*
X8417554Y-1459999D01*
X8324082Y-1353065D02*
G01*
X8433048Y-1326903D01*
X8324082Y-1300995D02*
G01*
X8433048Y-1326903D01*
X8324082Y-1300995D02*
G01*
X8433048Y-1275087D01*
X8324082Y-1249179D02*
G01*
X8433048Y-1275087D01*
X8349990Y-1209555D02*
G01*
X8344910Y-1209555D01*
X8334496Y-1204475D01*
X8329162Y-1199141D01*
X8324082Y-1188727D01*
X8324082Y-1167899D01*
X8329162Y-1157739D01*
X8334496Y-1152405D01*
X8344910Y-1147325D01*
X8355324Y-1147325D01*
X8365738Y-1152405D01*
X8381232Y-1162819D01*
X8433048Y-1214889D01*
X8433048Y-1141991D01*
X8090423Y-1532643D02*
G01*
X8100837Y-1522229D01*
X8105917Y-1506735D01*
X8105917Y-1485907D01*
X8100837Y-1470413D01*
X8090423Y-1459999D01*
X8080009Y-1459999D01*
X8069595Y-1465079D01*
X8064261Y-1470413D01*
X8059181Y-1480827D01*
X8048767Y-1512069D01*
X8043687Y-1522229D01*
X8038353Y-1527563D01*
X8027939Y-1532643D01*
X8012445Y-1532643D01*
X8002031Y-1522229D01*
X7996951Y-1506735D01*
X7996951Y-1485907D01*
X8002031Y-1470413D01*
X8012445Y-1459999D01*
X8105917Y-1566933D02*
G01*
X7996951Y-1593095D01*
X8105917Y-1619003D02*
G01*
X7996951Y-1593095D01*
X8105917Y-1619003D02*
G01*
X7996951Y-1644911D01*
X8105917Y-1670819D02*
G01*
X7996951Y-1644911D01*
X8105917Y-1715523D02*
G01*
X8105917Y-1772673D01*
X8064261Y-1741685D01*
X8064261Y-1757179D01*
X8059181Y-1767593D01*
X8054101Y-1772673D01*
X8038353Y-1778007D01*
X8027939Y-1778007D01*
X8012445Y-1772673D01*
X8002031Y-1762259D01*
X7996951Y-1746765D01*
X7996951Y-1731271D01*
X8002031Y-1715523D01*
X8007111Y-1710443D01*
X8017525Y-1705109D01*
X5690422Y-1532643D02*
G01*
X5700836Y-1522229D01*
X5705916Y-1506735D01*
X5705916Y-1485907D01*
X5700836Y-1470413D01*
X5690422Y-1459999D01*
X5680008Y-1459999D01*
X5669594Y-1465079D01*
X5664260Y-1470413D01*
X5659180Y-1480827D01*
X5648766Y-1512069D01*
X5643686Y-1522229D01*
X5638352Y-1527563D01*
X5627938Y-1532643D01*
X5612444Y-1532643D01*
X5602030Y-1522229D01*
X5596950Y-1506735D01*
X5596950Y-1485907D01*
X5602030Y-1470413D01*
X5612444Y-1459999D01*
X5705916Y-1566933D02*
G01*
X5596950Y-1593095D01*
X5705916Y-1619003D02*
G01*
X5596950Y-1593095D01*
X5705916Y-1619003D02*
G01*
X5596950Y-1644911D01*
X5705916Y-1670819D02*
G01*
X5596950Y-1644911D01*
X5705916Y-1757179D02*
G01*
X5633272Y-1705109D01*
X5633272Y-1783087D01*
X5705916Y-1757179D02*
G01*
X5596950Y-1757179D01*
X3350422Y-1532643D02*
G01*
X3360836Y-1522229D01*
X3365916Y-1506735D01*
X3365916Y-1485907D01*
X3360836Y-1470413D01*
X3350422Y-1459999D01*
X3340008Y-1459999D01*
X3329594Y-1465079D01*
X3324260Y-1470413D01*
X3319180Y-1480827D01*
X3308766Y-1512069D01*
X3303686Y-1522229D01*
X3298352Y-1527563D01*
X3287938Y-1532643D01*
X3272444Y-1532643D01*
X3262030Y-1522229D01*
X3256950Y-1506735D01*
X3256950Y-1485907D01*
X3262030Y-1470413D01*
X3272444Y-1459999D01*
X3365916Y-1566933D02*
G01*
X3256950Y-1593095D01*
X3365916Y-1619003D02*
G01*
X3256950Y-1593095D01*
X3365916Y-1619003D02*
G01*
X3256950Y-1644911D01*
X3365916Y-1670819D02*
G01*
X3256950Y-1644911D01*
X3365916Y-1767593D02*
G01*
X3365916Y-1715523D01*
X3319180Y-1710443D01*
X3324260Y-1715523D01*
X3329594Y-1731271D01*
X3329594Y-1746765D01*
X3324260Y-1762259D01*
X3314100Y-1772673D01*
X3298352Y-1778007D01*
X3287938Y-1778007D01*
X3272444Y-1772673D01*
X3262030Y-1762259D01*
X3256950Y-1746765D01*
X3256950Y-1731271D01*
X3262030Y-1715523D01*
X3267110Y-1710443D01*
X3277524Y-1705109D01*
X13975841Y-506984D02*
G01*
X13965427Y-512063D01*
X13955013Y-522478D01*
X13949679Y-532892D01*
X13944600Y-548639D01*
X13944600Y-574547D01*
X13949679Y-590042D01*
X13955013Y-600455D01*
X13965427Y-610870D01*
X13975841Y-615950D01*
X13996670Y-615950D01*
X14006829Y-610870D01*
X14017243Y-600455D01*
X14022577Y-590042D01*
X14027658Y-574547D01*
X14027658Y-548639D01*
X14022577Y-532892D01*
X14017243Y-522478D01*
X14006829Y-512063D01*
X13996670Y-506984D01*
X13975841Y-506984D01*
X13957300Y-760984D02*
G01*
X13957300Y-869950D01*
X13957300Y-760984D02*
G01*
X14004036Y-760984D01*
X14019529Y-766063D01*
X14024863Y-771397D01*
X14029943Y-781812D01*
X14029943Y-792226D01*
X14024863Y-802639D01*
X14019529Y-807720D01*
X14004036Y-812800D01*
X13957300Y-812800D02*
G01*
X14004036Y-812800D01*
X14019529Y-818134D01*
X14024863Y-823213D01*
X14029943Y-833628D01*
X14029943Y-849376D01*
X14024863Y-859789D01*
X14019529Y-864870D01*
X14004036Y-869950D01*
X13957300Y-869950D01*
X13944600Y-2030984D02*
G01*
X13986256Y-2082800D01*
X13986256Y-2139950D01*
X14027658Y-2030984D02*
G01*
X13986256Y-2082800D01*
X13957300Y-2284984D02*
G01*
X13957300Y-2393950D01*
X13957300Y-2284984D02*
G01*
X14004036Y-2284984D01*
X14019529Y-2290063D01*
X14024863Y-2295397D01*
X14029943Y-2305812D01*
X14029943Y-2316226D01*
X14024863Y-2326639D01*
X14019529Y-2331720D01*
X14004036Y-2336800D01*
X13957300Y-2336800D01*
X13993622Y-2336800D02*
G01*
X14029943Y-2393950D01*
X14022577Y-2564892D02*
G01*
X14017243Y-2554478D01*
X14006829Y-2544063D01*
X13996670Y-2538984D01*
X13975841Y-2538984D01*
X13965427Y-2544063D01*
X13955013Y-2554478D01*
X13949679Y-2564892D01*
X13944600Y-2580639D01*
X13944600Y-2606547D01*
X13949679Y-2622042D01*
X13955013Y-2632455D01*
X13965427Y-2642870D01*
X13975841Y-2647950D01*
X13996670Y-2647950D01*
X14006829Y-2642870D01*
X14017243Y-2632455D01*
X14022577Y-2622042D01*
X14022577Y-2606547D01*
X13996670Y-2606547D02*
G01*
X14022577Y-2606547D01*
X13362177Y-113792D02*
G01*
X13356843Y-103378D01*
X13346429Y-92963D01*
X13336270Y-87884D01*
X13315441Y-87884D01*
X13305027Y-92963D01*
X13294613Y-103378D01*
X13289279Y-113792D01*
X13284200Y-129539D01*
X13284200Y-155447D01*
X13289279Y-170942D01*
X13294613Y-181355D01*
X13305027Y-191770D01*
X13315441Y-196850D01*
X13336270Y-196850D01*
X13346429Y-191770D01*
X13356843Y-181355D01*
X13362177Y-170942D01*
X13362177Y-155447D01*
X13336270Y-155447D02*
G01*
X13362177Y-155447D01*
X13396468Y-87884D02*
G01*
X13396468Y-196850D01*
X13396468Y-87884D02*
G01*
X13469111Y-196850D01*
X13469111Y-87884D02*
G01*
X13469111Y-196850D01*
X13503402Y-87884D02*
G01*
X13503402Y-196850D01*
X13503402Y-87884D02*
G01*
X13539724Y-87884D01*
X13555472Y-92963D01*
X13565886Y-103378D01*
X13570966Y-113792D01*
X13576300Y-129539D01*
X13576300Y-155447D01*
X13570966Y-170942D01*
X13565886Y-181355D01*
X13555472Y-191770D01*
X13539724Y-196850D01*
X13503402Y-196850D01*
D11*
X12299998Y-2159998D02*
G01*
X12499997Y-2159998D01*
X10847499Y-2412499D02*
G01*
X10847499Y-507499D01*
X12752499Y-507499D01*
X12752499Y-2412499D01*
X10847499Y-2412499D01*
X12499997Y-2159998D02*
G01*
X12499997Y-1959998D01*
X11100000Y-760001D02*
G01*
X11300000Y-760001D01*
X11100000Y-960000D02*
G01*
X11100000Y-760001D01*
X11300000Y-760001D01*
X11100000Y-960000D02*
G01*
X11100000Y-760001D01*
X12499997Y-760001D02*
G01*
X12299998Y-760001D01*
X12499997Y-960000D02*
G01*
X12499997Y-760001D01*
X12299998Y-760001D01*
X12499997Y-960000D02*
G01*
X12499997Y-760001D01*
X11100000Y-1959998D02*
G01*
X11100000Y-2159998D01*
X11300000Y-2159998D01*
X9929997Y-2159998D02*
G01*
X10129997Y-2159998D01*
X8477498Y-2412499D02*
G01*
X8477498Y-507499D01*
X10382498Y-507499D01*
X10382498Y-2412499D01*
X8477498Y-2412499D01*
X10129997Y-2159998D02*
G01*
X10129997Y-1959998D01*
X8730000Y-760001D02*
G01*
X8929999Y-760001D01*
X8730000Y-960000D02*
G01*
X8730000Y-760001D01*
X8929999Y-760001D01*
X8730000Y-960000D02*
G01*
X8730000Y-760001D01*
X10129997Y-760001D02*
G01*
X9929997Y-760001D01*
X10129997Y-960000D02*
G01*
X10129997Y-760001D01*
X9929997Y-760001D01*
X10129997Y-960000D02*
G01*
X10129997Y-760001D01*
X8730000Y-1959998D02*
G01*
X8730000Y-2159998D01*
X8929999Y-2159998D01*
X6500002Y-760001D02*
G01*
X6300002Y-760001D01*
X7952501Y-507499D02*
G01*
X7952501Y-2412499D01*
X6047501Y-2412499D01*
X6047501Y-507499D01*
X7952501Y-507499D01*
X6300002Y-760001D02*
G01*
X6300002Y-960000D01*
X7699999Y-2159998D02*
G01*
X7500000Y-2159998D01*
X7699999Y-1959998D02*
G01*
X7699999Y-2159998D01*
X7500000Y-2159998D01*
X7699999Y-1959998D02*
G01*
X7699999Y-2159998D01*
X6300002Y-2159998D02*
G01*
X6500002Y-2159998D01*
X6300002Y-1959998D02*
G01*
X6300002Y-2159998D01*
X6500002Y-2159998D01*
X6300002Y-1959998D02*
G01*
X6300002Y-2159998D01*
X7699999Y-960000D02*
G01*
X7699999Y-760001D01*
X7500000Y-760001D01*
X4100001Y-760001D02*
G01*
X3900002Y-760001D01*
X5552500Y-507499D02*
G01*
X5552500Y-2412499D01*
X3647500Y-2412499D01*
X3647500Y-507499D01*
X5552500Y-507499D01*
X3900002Y-760001D02*
G01*
X3900002Y-960000D01*
X5299999Y-2159998D02*
G01*
X5099999Y-2159998D01*
X5299999Y-1959998D02*
G01*
X5299999Y-2159998D01*
X5099999Y-2159998D01*
X5299999Y-1959998D02*
G01*
X5299999Y-2159998D01*
X3900002Y-2159998D02*
G01*
X4100001Y-2159998D01*
X3900002Y-1959998D02*
G01*
X3900002Y-2159998D01*
X4100001Y-2159998D01*
X3900002Y-1959998D02*
G01*
X3900002Y-2159998D01*
X5299999Y-960000D02*
G01*
X5299999Y-760001D01*
X5099999Y-760001D01*
X1760001Y-760001D02*
G01*
X1560001Y-760001D01*
X3212500Y-507499D02*
G01*
X3212500Y-2412499D01*
X1307500Y-2412499D01*
X1307500Y-507499D01*
X3212500Y-507499D01*
X1560001Y-760001D02*
G01*
X1560001Y-960000D01*
X2959999Y-2159998D02*
G01*
X2759999Y-2159998D01*
X2959999Y-1959998D02*
G01*
X2959999Y-2159998D01*
X2759999Y-2159998D01*
X2959999Y-1959998D02*
G01*
X2959999Y-2159998D01*
X1560001Y-2159998D02*
G01*
X1760001Y-2159998D01*
X1560001Y-1959998D02*
G01*
X1560001Y-2159998D01*
X1760001Y-2159998D01*
X1560001Y-1959998D02*
G01*
X1560001Y-2159998D01*
X2959999Y-960000D02*
G01*
X2959999Y-760001D01*
X2759999Y-760001D01*
D12*
X13877010Y-677011D02*
G01*
X13623010Y-677011D01*
X13623010Y-423011D01*
X13877010Y-423011D01*
X13877010Y-613511D01*
D13*
X13877010Y-677011D02*
G01*
X13877010Y-613511D01*
D12*
X13877010Y-926998D02*
G01*
X13623010Y-926998D01*
X13623010Y-672998D01*
X13877010Y-672998D01*
X13877010Y-863498D01*
D13*
X13877010Y-926998D02*
G01*
X13877010Y-863498D01*
D12*
X13877000Y-2226995D02*
G01*
X13623000Y-2226995D01*
X13623000Y-1972995D01*
X13877000Y-1972995D01*
X13877000Y-2163495D01*
D13*
X13877000Y-2226995D02*
G01*
X13877000Y-2163495D01*
D12*
X13877010Y-2477000D02*
G01*
X13623010Y-2477000D01*
X13623010Y-2223000D01*
X13877010Y-2223000D01*
X13877010Y-2413500D01*
D13*
X13877010Y-2477000D02*
G01*
X13877010Y-2413500D01*
D12*
X13877010Y-2726999D02*
G01*
X13623010Y-2726999D01*
X13623010Y-2472999D01*
X13877010Y-2472999D01*
X13877010Y-2663499D01*
D13*
X13877010Y-2726999D02*
G01*
X13877010Y-2663499D01*
D12*
X13877000Y-426999D02*
G01*
X13623000Y-426999D01*
X13623000Y-172999D01*
X13877000Y-172999D01*
X13877000Y-363499D01*
D13*
X13877000Y-426999D02*
G01*
X13877000Y-363499D01*
M02*
